<svg xmlns="http://www.w3.org/2000/svg" viewBox="0 0 340.58 199.32"><defs><style>.cls-1,.cls-3{fill:#004b7a;}.cls-2{fill:#60b22b;}.cls-3{stroke:#004b7a;stroke-miterlimit:10;stroke-width:4px;}</style></defs><g id="Capa_2" data-name="Capa 2"><g id="Capa_3" data-name="Capa 3"><path class="cls-1" d="M257.69,126.53c-17.76,0-32.42-.08-47.08,0-3.75,0-4.88-.7-2.89-4.39,4.94-9.15,9.79-18.35,14.37-27.68,1.36-2.78,3.34-2.72,5.7-2.72,22.32,0,44.64,0,67,0a16,16,0,0,0,6.83-1c2.81-1.29,4.48-3.48,3.84-6.76-.59-3-2.43-4.45-5.61-4.45-17.49,0-35,0-52.46-.16-8.51-.08-16.71-1.44-24.47-5.42-10.93-5.61-16.56-14.54-18.62-26.42a43.21,43.21,0,0,1,2.12-22.84c5.36-14.62,16.39-22,31.24-23.64,18.73-2,37.58-.55,56.38-.82,11.65-.16,23.32.14,35-.12,4.09-.09,5.12,1.3,5,5.16q-.39,12.23,0,24.47c.12,4-1.18,5.11-5.13,5.08-26.48-.15-53-.08-79.45-.06a21.55,21.55,0,0,0-5.89.58c-2.7.75-4.06,2.42-4.14,4.88-.09,2.78,1.71,4.64,4.33,5.37a17.45,17.45,0,0,0,4.47.26c17,0,34-.28,51,.14,10.08.24,20,1.73,28.75,7.81a28,28,0,0,1,11.06,15.94c4.22,14.81,3.46,29.19-6,42-6.73,9.11-16.7,12.7-27.45,13.91C288.55,127.63,271.54,126,257.69,126.53Z" transform="translate(-0.79)"/><path class="cls-2" d="M28.55,61.82c12.46,0,24.61.07,36.76-.06,2.39,0,3.15,1.3,3.9,3,3.16,7.22,6.32,14.44,9.57,21.85,7.52-18.89,14.93-37.53,22.36-56.17a11.75,11.75,0,0,0-.43-10.39C98,14.78,96.2,9.09,93.9,3.62,92.71.77,93.91.11,96.54.13q15.49.07,31,0c2.24,0,3.77.67,4.66,2.89q9,22.23,18,44.41c4.83,11.84,9.69,23.67,15,36.66L189.85,34c.77,4.62.82,8,1.16,11.18,1.51,14.16,7.89,25.34,19.57,33.4,1.53,1,1.52,1.53.74,3-6.5,12.23-13.71,24.18-19,36.91-3.34,8-8.3,8.51-15.28,8.22-9.64-.4-19.32-.19-29,0-3,0-4.56-.62-5.8-3.81-6-15.38-12.37-30.6-18.6-45.88-.35-.85-.13-2.26-1.54-2.1-1,.12-1.37,1.17-1.77,2.14-6.23,15.44-12.63,30.81-18.68,46.31-1,2.55-2.09,3.33-4.57,3.32-12.49-.07-25,0-37.49,0-1.89,0-3.45-.14-4.39-2.33-8.49-19.63-17.1-39.21-25.64-58.82A26.9,26.9,0,0,1,28.55,61.82Z" transform="translate(-0.79)"/><path class="cls-2" d="M30.59,21.05c5.15,0,10.31.13,15.46,0,3.2-.11,5.33.59,6.34,4a67.6,67.6,0,0,0,3.83,9.11c1.25,2.72.33,3.5-2.46,3.48-11.14-.09-22.29-.07-33.43,0-1.9,0-3.14-.53-3.88-2.34-1.63-4-3.35-7.89-5-11.84-1-2.33.5-2.43,2.19-2.42C19.28,21.07,24.93,21.05,30.59,21.05Z" transform="translate(-0.79)"/><path class="cls-2" d="M22.36.6C27.5.6,32.66.81,37.78.53c3.22-.18,4.75,1,5.77,4A96.17,96.17,0,0,0,47.7,14c1.12,2.35.15,2.88-2.05,2.87q-17.41,0-34.84,0a3.33,3.33,0,0,1-3.42-2.25C5.81,11,4.23,7.41,2.47,3.89,1,.93,2.45.55,4.94.58,10.74.65,16.55.61,22.36.6Z" transform="translate(-0.79)"/><path class="cls-2" d="M19.2,41.8c13.08,0,25.39,0,37.69,0a3.12,3.12,0,0,1,3.23,1.81C61.7,47,63.24,50.52,64.8,54c1.17,2.58,0,3.17-2.41,3.16q-17-.08-34,0a3.07,3.07,0,0,1-3.36-2.19C23.41,50.78,21.45,46.77,19.2,41.8Z" transform="translate(-0.79)"/><path class="cls-3" d="M53.42,186.76H21.31l-4.77,10.56H4l26-52.88H44.39l26,52.88H58.27Zm-28.77-7.28H50.07L37.28,151.72Z" transform="translate(-0.79)"/><path class="cls-3" d="M82.6,197.32V144.44h41.56c14.47,0,19.65,2.16,19.65,12.64v27.6c0,10.4-4.85,12.64-19.65,12.64Zm49.84-38c0-5.84-2.76-7.36-11.2-7.36H94.06V189.8h27.18c8.19,0,11.2-1.52,11.2-7.28Z" transform="translate(-0.79)"/><path class="cls-3" d="M222.5,197.32V158.44L201,197.32H190.73l-21.49-38.88v38.88H158.78V144.44h12.88l24.58,42.16L221,144.44h12v52.88Z" transform="translate(-0.79)"/><path class="cls-3" d="M248.42,197.32V144.44H259.8v52.88Z" transform="translate(-0.79)"/><path class="cls-3" d="M324.35,197.32l-38.3-38.56v38.56H275.18V144.44h12.05l37.46,39.44V144.44h10.95v52.88Z" transform="translate(-0.79)"/></g></g></svg>