<svg xmlns="http://www.w3.org/2000/svg" viewBox="0 0 668.31 265.58"><defs><style>.cls-1{fill:#004b7a;}.cls-2{fill:#60b22b;}.cls-3{fill:#46769d;}</style></defs><g id="Capa_2" data-name="Capa 2"><g id="Capa_1-2" data-name="Capa 1"><path class="cls-1" d="M420.15,126.53c-17.76,0-32.42-.08-47.07,0-3.76,0-4.88-.7-2.89-4.39,4.93-9.15,9.78-18.35,14.36-27.68,1.37-2.78,3.34-2.72,5.7-2.72,22.32,0,44.64,0,67,0a16,16,0,0,0,6.82-1c2.81-1.29,4.49-3.48,3.84-6.76-.59-3-2.43-4.45-5.61-4.45-17.49,0-35,0-52.46-.16-8.5-.08-16.71-1.44-24.46-5.42-10.93-5.61-16.57-14.54-18.63-26.42a43.41,43.41,0,0,1,2.12-22.84c5.36-14.62,16.39-22,31.24-23.64,18.73-2,37.58-.55,56.38-.82,11.66-.16,23.32.14,35-.12,4.08-.09,5.11,1.3,5,5.16q-.39,12.23,0,24.47c.13,4-1.17,5.11-5.13,5.08-26.48-.15-53-.08-79.45-.06a21.44,21.44,0,0,0-5.88.58c-2.71.75-4.07,2.42-4.15,4.88-.09,2.78,1.71,4.64,4.33,5.37a17.47,17.47,0,0,0,4.47.26c17,0,34-.28,51,.14,10.09.24,20,1.73,28.75,7.81a28,28,0,0,1,11.07,15.94c4.21,14.81,3.46,29.19-6,42-6.73,9.11-16.69,12.7-27.44,13.91C451,127.63,434,126,420.15,126.53Z"/><path class="cls-2" d="M191,61.82c12.46,0,24.61.07,36.75-.06,2.39,0,3.15,1.3,3.9,3,3.16,7.22,6.33,14.44,9.58,21.85,7.51-18.89,14.92-37.53,22.35-56.17a11.75,11.75,0,0,0-.42-10.39c-2.67-5.28-4.52-11-6.82-16.44C255.17.77,256.37.11,259,.13q15.5.07,31,0c2.24,0,3.76.67,4.66,2.89q8.94,22.23,18,44.41c4.83,11.84,9.69,23.67,15,36.66C336,67.11,343.85,51.2,352.31,34c.78,4.62.82,8,1.16,11.18,1.51,14.16,7.89,25.34,19.58,33.4,1.52,1,1.51,1.53.73,3-6.5,12.23-13.71,24.18-19,36.91-3.33,8-8.3,8.51-15.27,8.22-9.65-.4-19.33-.19-29,0-3,0-4.56-.62-5.8-3.81-6-15.38-12.36-30.6-18.6-45.88-.35-.85-.13-2.26-1.54-2.1-1,.12-1.37,1.17-1.77,2.14-6.22,15.44-12.63,30.81-18.67,46.31-1,2.55-2.1,3.33-4.58,3.32-12.49-.07-25,0-37.48,0-1.9,0-3.45-.14-4.4-2.33-8.49-19.63-17.1-39.21-25.64-58.82A27,27,0,0,1,191,61.82Z"/><path class="cls-2" d="M47.45,186c-3,8.72-6.07,17.41-9,26.17-1,3-2.28,4.63-5.92,4.48-14.44-.59-10.73,2.46-15.93-11.46-4.73-12.65-9.72-25.2-14.56-37.82-.76-2-1.29-4-2.08-6.54,4.91,0,9.39.13,13.85-.05,2.62-.11,2.84,1.68,3.45,3.39Q23,180.21,28.78,196.29c.21.59.2,1.33,1.52,1.53,4.2-8.46,5.9-17.92,9.56-26.64a19.49,19.49,0,0,0,1.2-4.3c.82-5,3.54-6.61,8.63-6.28,3.51.22,5,1.54,6,4.54,3,9.44,6.11,18.84,9.16,28.25.49,1.53.65,3.19,1.87,4.45,1.71-.41,1.81-1.87,2.13-3.06,2.74-10.4,7-20.27,10.39-30.46,1-2.93,2.51-3.84,5.43-3.59,3.46.29,8.27-1.11,10.11.67,2.24,2.18-1.07,6.26-2.18,9.3C87.2,185.42,81.36,200,75.69,214.57a2.64,2.64,0,0,1-2.62,1.91c-3.83,0-7.66.09-11.49,0-2.9-.09-3-2.67-3.65-4.63l-9.08-26.1Z"/><path class="cls-1" d="M412.47,216.53c-9-.29-18,1.05-26.87-.46-5.83-1-8.29-3.33-8.47-9.25-.35-12.12-.42-24.27,0-36.39.22-6.61,3-9.27,9.75-9.67a416.28,416.28,0,0,1,50.82,0c6.88.43,8.8,3,9.08,10,.47,11.79.53,23.58,0,35.37-.33,7.33-2.33,9.81-9.85,10.28C428.79,216.92,420.62,216.53,412.47,216.53ZM412,204.79c5.65,0,11.29-.08,16.94,0,2.53.06,3.57-.79,3.54-3.41-.1-8.63-.13-17.26,0-25.89,0-3.15-1.34-3.95-4.22-3.92-10.8.11-21.59.13-32.38,0-2.89,0-3.77,1.07-3.74,3.78q.14,12.94,0,25.89c0,2.93,1.26,3.65,3.93,3.57C401.37,204.69,406.69,204.79,412,204.79Z"/><path class="cls-1" d="M652.52,197l14.54,17c.48.56,1.64.84,1.11,1.89s-1.47.58-2.25.58c-3.83,0-7.67-.1-11.49.06-2.82.13-4.71-1.14-6.39-3.18q-5.37-6.5-10.86-12.9c-1.23-1.44-1.78-3.74-4.29-3.72-4.49,0-9-.07-13.47.2-1.45.09-1.09,1.85-1.1,3-.05,4.16-.13,8.33,0,12.48.1,2.86-.66,4.27-3.89,4.18-13.82-.38-11,2-11.19-10.75-.18-13.48,0-27-.09-40.44,0-3.33.79-4.67,4.45-4.61,14.82.2,29.64,0,44.46.11,10.25.08,12.61,2.57,12.63,12.67,0,3.33,0,6.65,0,10C664.68,193.23,662.89,195.32,652.52,197Zm-18.79-12.09c4,0,8-.1,12,0,2.71.09,4.09-.84,3.94-3.69-.09-1.66-.07-3.32,0-5,.12-3.29-1.16-4.75-4.7-4.6-5.81.25-11.63.07-17.44.07-9.62,0-9.53,0-9.12,9.74.1,2.51.77,3.58,3.42,3.47C625.76,184.77,629.75,184.89,633.73,184.89Z"/><path class="cls-1" d="M333.46,216.5c-9.37,0-16.87-.19-24.36.08-3.59.13-4.82-1.11-4.33-4.52a10.33,10.33,0,0,0,0-3c-.6-3.85.83-5.1,4.84-5,12.65.26,25.31-.1,38,.2,4.38.1,4.5-2.09,4.24-5.2-.24-2.88,1.29-6.53-4.2-6.39-10.48.28-21,.11-31.47.07-8.79,0-11.31-2.55-11.35-11.21,0-3.33,0-6.65,0-10,.06-7.24,2.35-10.34,9.53-10.52,15.81-.4,31.64-.18,47.45-.26,1.84,0,2.57.6,2.8,2.54.92,7.78.45,8.4-7.5,8.4-11,0-22,.17-33-.09-4.61-.1-4.46,2.46-4.6,5.71s.73,4.67,4.36,4.57c9.32-.24,18.65,0,28-.13a32,32,0,0,1,8.78,1.31,7.51,7.51,0,0,1,6,7.58c.16,5.65.24,11.32,0,17-.17,4.46-2.46,7.31-7.18,8.12C350.19,217.34,340.86,215.93,333.46,216.5Z"/><path class="cls-1" d="M595.1,216.49c-2.64,0-5-.2-7.28,0-5.64.58-10.19-.18-11.67-6.87-.54-2.45-2.63-3.3-5.39-3.22-8,.22-16,.33-24,0-4.35-.19-7.4.75-8.88,5.09s-4.45,5.25-8.82,5.1c-10.2-.35-10.35-.19-5.64-8.88,8.1-14.91,16.39-29.71,24.59-44.56.75-1.35,1.56-2.43,3.39-2.39,4,.09,8,.11,12,0,2.07-.08,3.09,1.27,3.84,2.66Q581.2,189.12,595,214.92C595.12,215.17,595,215.53,595.1,216.49Zm-37.66-41.28c-3.54,6.3-6.74,12-10,17.71-.88,1.57-1.25,2.84,1.31,2.83,5.48,0,11,0,16.43,0,1.77,0,3-.56,1.84-2.72C563.94,187.26,560.84,181.51,557.44,175.21Z"/><path class="cls-2" d="M131.15,161.09c6.17-2,9.15,1.13,11.85,6.33,8,15.42,16.46,30.58,24.82,45.8,1.22,2.22,1.29,3.39-1.67,3.31a27.59,27.59,0,0,0-5,0c-5.58.86-9.55-.6-11.47-6.47-.86-2.61-3.08-3.74-6.25-3.64-8.31.29-16.65.26-25,0-3.46-.1-6,.76-6.8,4.23-1.27,5.39-4.87,6.06-9.71,5.91-10.28-.31-10.26-.07-5.16-9.17,7.41-13.21,14.87-26.39,22.08-39.7C121.64,162.7,124.61,158.77,131.15,161.09Zm-.62,14.29c-3.18,6-6.08,11.53-9,17-.9,1.7-1.52,3.27,1.33,3.31,5.33.07,10.66,0,16,0,1.79,0,2.75-.93,1.84-2.42C137.17,187.6,134.87,181.17,130.53,175.38Z"/><path class="cls-2" d="M266.65,160.79c9.32,0,18.65.23,28-.1,4.57-.16,4.2,2.45,4.09,5.35s1.08,6.21-4.06,5.85-10.32.05-15.47-.11c-4-.13-5.62,1.26-5.53,5.5.25,11.31-.11,22.63.19,33.94.11,4.31-1.41,5.31-5.43,5.23-9.59-.18-9.6,0-9.6-9.75,0-10-.16-20,.09-29.95.09-3.81-1.43-5-4.89-4.95-5.49.08-11-.13-16.48.06-5.07.18-3.27-3.49-3.45-5.9s-.88-5.37,3.61-5.25C247.33,161,257,160.79,266.65,160.79Z"/><path class="cls-1" d="M486.73,216.53c-8,0-16-.1-23.94.05-2.82,0-4.16-.42-4.12-3.75.17-16.12.13-32.24,0-48.36,0-2.7.58-3.71,3.53-3.78,11.54-.27,11.54-.38,11.54,11.27,0,9.14.11,18.28-.06,27.42-.06,3.43,1.08,4.71,4.59,4.65,10.47-.16,20.95.06,31.42-.12,3.58-.06,5.39.9,4.91,4.75a20.33,20.33,0,0,0,0,4.48c.25,2.63-.88,3.47-3.45,3.43C503,216.45,494.87,216.52,486.73,216.53Z"/><path class="cls-2" d="M196.22,160.83c8.83,0,17.67.31,26.47-.13,4.79-.23,5.24,1.71,5.37,5.73.14,4.47-1.18,5.85-5.59,5.47-4.62-.39-9.33.13-14-.15-3.68-.23-4.92.89-4.84,4.71.23,11.65,0,23.3.16,34.95.07,3.52-1,4.48-4.47,4.45-10.56-.08-10.57.07-10.57-10.71,0-9.66-.11-19.31.06-29,.06-3.28-1.09-4.49-4.31-4.41-5.49.14-11-.22-16.48.11-5.05.3-4-3-4.16-5.9-.18-3.19.09-5.38,4.36-5.25C177.57,161,186.9,160.83,196.22,160.83Z"/><path class="cls-2" d="M193.05,21.05c5.15,0,10.31.13,15.46,0,3.2-.11,5.33.59,6.34,4a67.6,67.6,0,0,0,3.83,9.11c1.25,2.72.33,3.5-2.46,3.48-11.14-.09-22.28-.07-33.43,0-1.89,0-3.14-.53-3.88-2.34-1.63-4-3.35-7.89-5-11.84-1-2.33.49-2.43,2.19-2.42C181.74,21.07,187.39,21.05,193.05,21.05Z"/><path class="cls-2" d="M184.82.6c5.14,0,10.3.21,15.42-.07,3.22-.18,4.75,1,5.77,4a96.17,96.17,0,0,0,4.15,9.5c1.12,2.35.15,2.88-2,2.87q-17.43,0-34.84,0a3.33,3.33,0,0,1-3.43-2.25c-1.58-3.6-3.16-7.2-4.92-10.72-1.47-3,0-3.34,2.47-3.31C173.21.65,179,.61,184.82.6Z"/><path class="cls-2" d="M181.67,41.8c13.07,0,25.38,0,37.69,0a3.12,3.12,0,0,1,3.22,1.81c1.58,3.45,3.12,6.93,4.69,10.38,1.16,2.58,0,3.17-2.42,3.16q-17-.08-34,0a3.07,3.07,0,0,1-3.36-2.19C185.87,50.78,183.91,46.77,181.67,41.8Z"/><path class="cls-3" d="M461.39,260.77c2.61-5.64,5.05-11,7.58-16.37.69-1.45,1.45-3.51,3.55-2.47,2.5,1.23.26,2.84-.27,4.07-2.28,5.29-4.81,10.46-7.15,15.72-.8,1.81-1.66,3.07-4,3-2.1-.05-2.86-1.22-3.56-2.84-2-4.67-4.14-9.32-6.28-14.1a49.87,49.87,0,0,0-5.74,12.69c-.7,2.2-1.54,4.24-4.67,4.28s-3.49-2.05-4.34-3.93c-2.31-5.11-4.54-10.24-6.77-15.38-.48-1.12-1.93-2.52-.25-3.46,1.86-1,3.07.42,3.82,2,2.15,4.63,4.26,9.28,6.41,13.92a20.09,20.09,0,0,0,1.22,1.89c3.19-4.57,4.61-9.59,6.66-14.33.66-1.53.75-3.78,3.29-3.75,2.19,0,2.13,2,3.08,3.25C457.6,249.63,457.68,255.84,461.39,260.77Z"/><path class="cls-3" d="M173,261.64c2.17,0,4.33.07,6.49,0,1.92-.08,2.39-1.46,2.47-3.1.11-2.13-1.43-1.84-2.71-1.87-2.16-.06-4.32,0-6.48-.08-1.2,0-1.76-.71-1.76-1.91a1.65,1.65,0,0,1,1.81-1.86c4,0,8,0,12,0,1.49,0,1.83.87,2,2.22.83,5.43-1.5,8.86-6.9,9.74a38.85,38.85,0,0,1-5.88.71c-14.69.14-17.6-3.39-15.13-18,1-5.71,5.8-5.87,9.81-6.51a32.83,32.83,0,0,1,13.77,1A5.79,5.79,0,0,1,186.2,245c.7,1.41,1.45,3.42-.39,4.42-1.65.89-3.31.19-3.78-1.91-.57-2.58-2.57-2.72-4.59-2.76-2.66-.06-5.32-.05-8,0-5.4.07-6.54,1.26-6.61,6.83C162.73,261.7,162.73,261.7,173,261.64Z"/><path class="cls-3" d="M498.69,241.53c2.66.13,5.32.23,8,.4s4,2.18,4.69,4.49c.33,1.08.64,2.43-.9,2.93-1.22.4-1.94-.09-2.72-1.33-2-3.22-13.38-4.75-16.26-2.41-2,1.59-1.22,4.14,1.54,5.24,3.7,1.47,7.57.69,11.36.82,6.33.2,7.88,2,7.42,8.26-.19,2.58-1.4,4.05-3.78,4.54a48.91,48.91,0,0,1-17.81,0,4.48,4.48,0,0,1-3.79-2.85c-.59-1.57-1.45-3.53.17-4.54,2-1.23,2.69.51,3.31,2.27s2.14,2.39,4,2.36c3.5-.07,7-.06,10.49,0,2.18,0,3.5-.76,3.51-3.15,0-2.56-1.65-2.94-3.66-3a73.4,73.4,0,0,1-12.89-.89c-4.52-.85-4.54-4-4.65-7.49s1.57-5.28,5-5.4c2.32-.09,4.66,0,7,0Z"/><path class="cls-3" d="M400.72,241.82c2.49,0,5,0,7.48,0a5.34,5.34,0,0,1,5,3.49c.59,1.32,1.12,3.16-.47,4s-2.52-.13-3.05-2c-.65-2.23-2.83-2.57-4.88-2.64-2.32-.07-4.65,0-7,0-2.81,0-6.05-.58-7.2,2.86-1.4,4.15-1.69,8.47.74,12.46a3.29,3.29,0,0,0,2.92,1.63c4,0,8,.08,12,0a3.26,3.26,0,0,0,3.47-3.46c-.06-2.47-2.16-1.42-3.43-1.57-1.48-.17-3,0-4.49-.05-1.29,0-2.81.21-2.88-1.8s1.39-1.92,2.74-1.94a41.06,41.06,0,0,1,6.47.06c1.94.28,4.91-1.71,5.53,2.2.75,4.77-.86,8.63-4.41,9.39-6.24,1.35-12.74,1.71-18.72-.25-5.52-1.81-4.4-7.73-4.27-12,.12-4.07-.54-9.64,6-10.26,2.8-.26,5.64,0,8.47,0Z"/><path class="cls-3" d="M341.58,253.57c.2,1.93-.46,4.17-.68,6.45-.25,2.74-2,3.85-4.06,4.35-6.53,1.57-13.12,1-19.69.13a1.93,1.93,0,0,1-.47-.13c-3.43-1.27-5.5-7.46-4.57-14.08.58-4.18,1.3-8.32,6.92-8.56,4.38-.18,8.59-1.61,13.18-.4C341,243.66,341.57,244.06,341.58,253.57Zm-14.87,8.16c10.59,1.24,11.72-2.62,10.17-13.1-.46-3.11-2.57-3.68-4.86-3.84a92.87,92.87,0,0,0-10.42,0c-2,.08-4,.59-4.72,2.86C313.86,256.8,317.28,261.71,326.71,261.73Z"/><path class="cls-3" d="M211.32,241.73c2.83,0,5.66-.09,8.48,0,5.22.23,8.52,5,6.41,9.71-1,2.24-2,3.84.08,6.09.79.85.38,2.85.45,4.33s0,2.67-2,2.73-2.11-1.36-1.91-2.67c.75-5-2.19-5.46-6-5.3-3.32.14-6.66.18-10,0-3-.17-4.23,1-4.09,4,.07,1.4,1,3.83-1.69,3.85-3,0-1.87-2.63-1.92-4.17-.15-4.82.12-9.65-.11-14.46-.16-3.3,1-4.51,4.28-4.21C206,241.92,208.66,241.73,211.32,241.73ZM212,252.9c2,0,4,0,6,0,2.59,0,4.65-.67,4.86-3.66s-1.78-4.2-4.29-4.36c-3.78-.24-7.6,0-11.39-.2-2.79-.13-4.31.56-4.28,3.79,0,3.06.79,4.77,4.19,4.45C208.63,252.78,210.29,252.9,212,252.9Z"/><path class="cls-3" d="M276.07,253.06c0-11.34,0-11.34,11.48-11.34,2.32,0,4.65,0,7,0,5.05.12,7.25,2.39,7.22,7.35s-2.16,7.4-7.09,7.51a66.21,66.21,0,0,1-8,0c-4.27-.44-7.22.2-6.25,5.58.28,1.54-.48,2.5-2.23,2.49s-2.15-1.12-2.14-2.61C276.09,259,276.08,256.05,276.07,253.06Zm12.36-.18c1.49,0,3,0,4.48,0,2.65.09,5.1,0,5.14-3.65s-2.36-4.38-5.23-4.49c-2.65-.09-5.31.12-7.95-.05-2.91-.19-4.49.3-4.49,3.9s1.19,4.77,4.58,4.31A26.77,26.77,0,0,1,288.43,252.88Z"/><path class="cls-3" d="M239.07,251.8c0-2.49,0-5,0-7.47,0-1.22.17-2.42,1.75-2.46s1.85,1.15,1.86,2.36c0,4,.15,8,0,12-.13,3.67,1.15,5.42,5.1,5.6,14,.63,13.88.73,14-13.3,0-2.19-1.45-6.31,1.43-6.29,3.71,0,1.67,4.22,1.84,6.52.27,3.61-.24,7.27-.23,10.92s-1.82,4.83-5.23,5.07c-4.81.35-9.59.17-14.4.09s-6.12-2.47-6.17-6.52C239.05,256.12,239.07,254,239.07,251.8Z"/></g></g></svg>