<svg xmlns="http://www.w3.org/2000/svg" viewBox="0 0 1006.65 126.75"><defs><style>.cls-1{fill:#60b22b;}.cls-2{fill:#004b7a;stroke:#004b7a;stroke-miterlimit:10;stroke-width:7px;}</style></defs><g id="Capa_2" data-name="Capa 2"><g id="WS"><path class="cls-1" d="M255.81,156.47c-17.76,0-32.42-.08-47.08.06-3.75,0-4.88-.7-2.88-4.4,4.93-9.14,9.78-18.35,14.36-27.67,1.36-2.79,3.34-2.73,5.7-2.73,22.32,0,44.64,0,67,0a15.89,15.89,0,0,0,6.83-1c2.81-1.29,4.48-3.48,3.84-6.76-.59-3-2.43-4.45-5.61-4.45-17.49,0-35,0-52.46-.16-8.51-.08-16.71-1.43-24.47-5.41-10.93-5.62-16.56-14.55-18.62-26.43a43.16,43.16,0,0,1,2.12-22.83c5.36-14.63,16.39-22,31.24-23.65,18.73-2,37.58-.55,56.38-.82,11.66-.16,23.32.15,35-.12,4.09-.09,5.12,1.31,5,5.16q-.39,12.22,0,24.47c.12,4-1.18,5.11-5.13,5.09-26.48-.16-53-.09-79.45-.07a21.18,21.18,0,0,0-5.89.59c-2.7.75-4.06,2.41-4.14,4.87-.09,2.78,1.71,4.65,4.33,5.37a17,17,0,0,0,4.47.26c17,0,34-.28,51,.14,10.08.25,20,1.74,28.75,7.81A28,28,0,0,1,337,99.72c4.22,14.81,3.47,29.19-6,42-6.73,9.11-16.7,12.69-27.45,13.91C286.67,157.57,269.66,155.93,255.81,156.47Z" transform="translate(0 -29.94)"/><path class="cls-1" d="M26.67,91.76c12.46,0,24.61.08,36.76-.06,2.39,0,3.15,1.3,3.9,3l9.57,21.84C84.42,97.68,91.83,79,99.26,60.4A11.74,11.74,0,0,0,98.83,50C96.16,44.73,94.32,39,92,33.56c-1.19-2.84,0-3.51,2.64-3.49q15.5.09,31,0c2.23,0,3.76.68,4.65,2.89q9,22.23,18,44.41c4.83,11.85,9.69,23.67,15,36.66L188,63.92c.77,4.62.82,8,1.16,11.18,1.51,14.17,7.89,25.34,19.57,33.41,1.53,1,1.52,1.52.74,3-6.5,12.23-13.71,24.18-19,36.91-3.34,8-8.3,8.52-15.28,8.22-9.64-.4-19.32-.19-29,0-3,0-4.56-.62-5.8-3.81-6-15.38-12.37-30.6-18.6-45.87-.35-.85-.13-2.27-1.54-2.11-1,.12-1.37,1.17-1.77,2.15-6.23,15.43-12.63,30.8-18.67,46.31-1,2.55-2.1,3.33-4.58,3.31-12.49-.06-25,0-37.48,0-1.9,0-3.45-.13-4.4-2.32C44.82,134.58,36.21,115,27.67,95.39A26.49,26.49,0,0,1,26.67,91.76Z" transform="translate(0 -29.94)"/><path class="cls-1" d="M28.71,51c5.15,0,10.31.13,15.46,0,3.2-.11,5.33.59,6.34,4a67.73,67.73,0,0,0,3.83,9.12c1.25,2.71.33,3.5-2.46,3.47q-16.71-.12-33.43,0c-1.9,0-3.14-.53-3.88-2.34-1.63-4-3.35-7.89-5-11.84-1-2.33.5-2.43,2.19-2.42C17.4,51,23.05,51,28.71,51Z" transform="translate(0 -29.94)"/><path class="cls-1" d="M20.48,30.55c5.14,0,10.3.21,15.42-.08,3.22-.18,4.75,1.05,5.77,4a96.17,96.17,0,0,0,4.15,9.5c1.12,2.36.15,2.88-2,2.88q-17.42-.06-34.84,0a3.32,3.32,0,0,1-3.42-2.25C3.93,41,2.35,37.35.59,33.84c-1.47-3,0-3.34,2.47-3.31C8.86,30.59,14.67,30.55,20.48,30.55Z" transform="translate(0 -29.94)"/><path class="cls-1" d="M17.32,71.74c13.08,0,25.39,0,37.7,0a3.13,3.13,0,0,1,3.22,1.81c1.58,3.46,3.12,6.93,4.68,10.39,1.17,2.57,0,3.16-2.41,3.15-11.32,0-22.65,0-34,0a3.08,3.08,0,0,1-3.36-2.2C21.53,80.73,19.57,76.72,17.32,71.74Z" transform="translate(0 -29.94)"/><path class="cls-2" d="M440.15,129.23H376.09L366.59,153h-25L393.44,34h28.69L474,153H449.82Zm-57.38-16.38h50.71L408,50.39Z" transform="translate(0 -29.94)"/><path class="cls-2" d="M498.37,153V34h82.9c28.86,0,39.2,4.86,39.2,28.44v62.1c0,23.4-9.67,28.44-39.2,28.44Zm99.42-85.5c0-13.14-5.51-16.56-22.35-16.56H521.22v85.14h54.22c16.34,0,22.35-3.42,22.35-16.38Z" transform="translate(0 -29.94)"/><path class="cls-2" d="M777.45,153V65.51L734.58,153H714.06L671.19,65.51V153H650.34V34H676l49,94.86L774.45,34h24V153Z" transform="translate(0 -29.94)"/><path class="cls-2" d="M829.17,153V34h22.68V153Z" transform="translate(0 -29.94)"/><path class="cls-2" d="M980.63,153l-76.4-86.76V153H882.55V34h24l74.73,88.74V34h21.85V153Z" transform="translate(0 -29.94)"/></g></g></svg>